<svg xmlns="http://www.w3.org/2000/svg" width="21" height="20" viewBox="0 0 21 20" fill="none">
<path d="M6.78067 3.78669C6.71534 3.8481 6.66576 3.92212 6.62434 4.00327L6.61968 3.99888L0.0772205 17.8519L0.0836369 17.8579C-0.0376925 18.0789 0.165301 18.5285 0.581204 18.9199C0.997108 19.3109 1.47543 19.5017 1.7105 19.3876L1.71633 19.3931L16.4544 13.243L16.4497 13.2381C16.5354 13.1997 16.6142 13.1531 16.6801 13.0906C17.5912 12.2341 16.1137 9.45707 13.3809 6.8878C10.6469 4.31853 7.69239 2.93027 6.78067 3.78669Z" fill="#12278C"/>
<path d="M7.58215 6.26074L0.241715 17.5039L0.0772205 17.8521L0.0836369 17.8581C-0.0376925 18.0791 0.165301 18.5287 0.581204 18.9201C0.716533 19.0473 0.857112 19.1438 0.994774 19.2255L9.91541 9.00217L7.58215 6.26074Z" fill="#FBBEBE"/>
<path d="M13.4229 6.84541C16.1469 9.407 17.6595 12.1375 16.7997 12.9445C15.9404 13.7527 13.0355 12.3316 10.3097 9.77106C7.58504 7.20947 6.07309 4.47791 6.93231 3.67028C7.79212 2.86266 10.697 4.28381 13.4229 6.84541Z" fill="#FFD93B"/>
<path d="M10.844 7.14307C10.7279 7.23135 10.5763 7.2774 10.4159 7.26096C9.90954 7.20942 9.48372 7.04383 9.18564 6.7823C8.87007 6.50542 8.71432 6.13368 8.75691 5.76139C8.83157 5.10783 9.52921 4.50801 10.7186 4.62863C11.1812 4.67524 11.3877 4.53542 11.3947 4.46853C11.4028 4.40219 11.2331 4.224 10.7705 4.17684C10.2642 4.12531 9.83837 3.95972 9.53971 3.69819C9.22414 3.42131 9.06781 3.04957 9.11098 2.67728C9.18681 2.02372 9.88387 1.4239 11.0721 1.54507C11.4092 1.57906 11.5871 1.51382 11.6624 1.4716C11.7225 1.43706 11.7464 1.40416 11.7487 1.38497C11.7557 1.31863 11.5883 1.14043 11.1246 1.09328C10.8043 1.06038 10.5722 0.790628 10.6078 0.48907C10.6422 0.188061 10.9286 -0.0296089 11.25 0.00328826C12.4382 0.123363 12.9842 0.848746 12.9089 1.50285C12.8331 2.15751 12.136 2.75623 10.9467 2.63616C10.6095 2.60162 10.4334 2.66741 10.3575 2.70963C10.2974 2.74362 10.2729 2.77707 10.2706 2.79571C10.263 2.8626 10.4316 3.04025 10.8953 3.0874C12.0835 3.20802 12.6295 3.93286 12.5543 4.58696C12.479 5.24052 11.782 5.84035 10.5932 5.71917C10.256 5.68518 10.0787 5.75097 10.0029 5.79264C9.9422 5.82773 9.91887 5.86063 9.91653 5.87927C9.90895 5.94562 10.0775 6.12381 10.5407 6.17096C10.8603 6.20386 11.0931 6.47416 11.0575 6.77517C11.0412 6.9254 10.9601 7.05535 10.844 7.14307Z" fill="#FBBF19"/>
<path d="M17.8856 12.2137C19.0364 11.9083 19.8303 12.3908 20.0193 13.0241C20.2083 13.6568 19.7988 14.4578 18.6485 14.7621C18.1994 14.8806 18.0646 15.0823 18.0827 15.1465C18.1026 15.2112 18.3306 15.3175 18.7786 15.1986C19.9289 14.8943 20.7228 15.3768 20.9118 16.0095C21.102 16.6428 20.6913 17.4427 19.5404 17.7476C19.0919 17.866 18.9565 18.0683 18.9764 18.1324C18.9956 18.1966 19.2231 18.303 19.6717 18.1845C19.9808 18.1028 20.304 18.2723 20.3909 18.5634C20.4772 18.8551 20.297 19.1577 19.9867 19.24C18.8369 19.5443 18.0425 19.0629 17.8523 18.4291C17.6633 17.7964 18.0734 16.9964 19.2249 16.6916C19.674 16.5726 19.8087 16.3714 19.7889 16.3067C19.7703 16.2425 19.5428 16.1356 19.0948 16.254C17.9433 16.5589 17.15 16.0775 16.9604 15.4431C16.7708 14.8104 17.1809 14.0104 18.3318 13.705C18.7798 13.5872 18.9145 13.3843 18.8959 13.3207C18.876 13.256 18.6491 13.1496 18.2006 13.2681C17.8902 13.3503 17.5688 13.1803 17.4813 12.8892C17.3944 12.5986 17.5752 12.2959 17.8856 12.2137Z" fill="#FBBF19"/>
<path d="M13.4158 10.7348C13.2443 10.7348 13.0752 10.6641 12.9597 10.5292C12.7584 10.2924 12.7999 9.9475 13.0507 9.75834C13.1778 9.66239 16.2111 7.42319 20.4979 7.99944C20.8169 8.04221 21.0386 8.31964 20.9931 8.61955C20.9476 8.91892 20.6548 9.12946 20.3328 9.0845C16.5453 8.57898 13.8072 10.5945 13.7804 10.6148C13.6719 10.6959 13.5436 10.7348 13.4158 10.7348Z" fill="#FBBF19"/>
<path d="M3.35609 8.45394C3.30067 8.45394 3.24409 8.44626 3.18809 8.43091C2.87952 8.34373 2.70453 8.03833 2.79727 7.74829C3.45817 5.67961 4.05723 2.37837 3.32109 1.51756C3.23884 1.41997 3.1146 1.32402 2.82994 1.34431C2.28279 1.38378 2.3347 2.46884 2.33529 2.47981C2.35979 2.78191 2.11829 3.04509 1.79747 3.06757C1.4714 3.08621 1.19607 2.86361 1.17216 2.5615C1.11208 1.80541 1.36232 0.349166 2.74244 0.251022C3.35842 0.207159 3.86999 0.40838 4.23106 0.830561C5.6141 2.44855 4.21006 7.13914 3.9149 8.06356C3.83907 8.30096 3.60691 8.45394 3.35609 8.45394Z" fill="#FBBF19"/>
<path d="M14.875 5.71273C15.3582 5.71273 15.7499 5.34452 15.7499 4.8903C15.7499 4.43609 15.3582 4.06787 14.875 4.06787C14.3917 4.06787 14 4.43609 14 4.8903C14 5.34452 14.3917 5.71273 14.875 5.71273Z" fill="#5C913B"/>
<path d="M1.16663 10.6472C1.81094 10.6472 2.33326 10.1563 2.33326 9.55067C2.33326 8.94505 1.81094 8.4541 1.16663 8.4541C0.522318 8.4541 0 8.94505 0 9.55067C0 10.1563 0.522318 10.6472 1.16663 10.6472Z" fill="#9266CC"/>
<path d="M18.957 11.1956C19.4402 11.1956 19.832 10.8274 19.832 10.3732C19.832 9.919 19.4402 9.55078 18.957 9.55078C18.4738 9.55078 18.082 9.919 18.082 10.3732C18.082 10.8274 18.4738 11.1956 18.957 11.1956Z" fill="#5C913B"/>
<path d="M13.707 17.7747C14.1902 17.7747 14.582 17.4065 14.582 16.9523C14.582 16.4981 14.1902 16.1299 13.707 16.1299C13.2238 16.1299 12.832 16.4981 12.832 16.9523C12.832 17.4065 13.2238 17.7747 13.707 17.7747Z" fill="#5C913B"/>
<path d="M16.3326 2.97098C16.977 2.97098 17.4993 2.48003 17.4993 1.8744C17.4993 1.26878 16.977 0.777832 16.3326 0.777832C15.6883 0.777832 15.166 1.26878 15.166 1.8744C15.166 2.48003 15.6883 2.97098 16.3326 2.97098Z" fill="#FFCC4D"/>
<path d="M18.957 5.16439C19.4402 5.16439 19.832 4.79618 19.832 4.34196C19.832 3.88775 19.4402 3.51953 18.957 3.51953C18.4738 3.51953 18.082 3.88775 18.082 4.34196C18.082 4.79618 18.4738 5.16439 18.957 5.16439Z" fill="#FFCC4D"/>
<path d="M17.207 7.35726C17.6902 7.35726 18.082 6.98905 18.082 6.53483C18.082 6.08062 17.6902 5.7124 17.207 5.7124C16.7238 5.7124 16.332 6.08062 16.332 6.53483C16.332 6.98905 16.7238 7.35726 17.207 7.35726Z" fill="#FFCC4D"/>
<path d="M4.37497 13.3885C4.85821 13.3885 5.24994 13.0203 5.24994 12.5661C5.24994 12.1119 4.85821 11.7437 4.37497 11.7437C3.89174 11.7437 3.5 12.1119 3.5 12.5661C3.5 13.0203 3.89174 13.3885 4.37497 13.3885Z" fill="#FFCC4D"/>
</svg>