<svg id="Layer_1" data-name="Layer 1" xmlns="http://www.w3.org/2000/svg" viewBox="0 0 191.33 58.21"><defs><style>.cls-1,.cls-4{fill:#fff;}.cls-2{fill:none;}.cls-3,.cls-6{fill:#a4c0f7;}.cls-4,.cls-6{font-size:30px;font-family:Arial-BoldMT, Arial;font-weight:700;}.cls-5{letter-spacing:-0.06em;}</style></defs><title>yum2</title><path class="cls-1" d="M198.1,373.41a3.6,3.6,0,0,1-3.34,3.22H163.43a3.62,3.62,0,0,1-3.34-3.22Z" transform="translate(-156 -345)"/><path class="cls-2" d="M156,345v52H347.33V345Zm38.76,31.63H163.43a3.62,3.62,0,0,1-3.34-3.22h38A3.6,3.6,0,0,1,194.76,376.63Z" transform="translate(-156 -345)"/><path class="cls-3" d="M194.35,382.56l-8.26,8.06a4.32,4.32,0,0,1-3,1.3H166.82V380.65a.87.87,0,0,0-.27-.63l1.81-1.78h2.85a1.94,1.94,0,0,0-1.29.56l-3.08,3v8.47h16.22a3.1,3.1,0,0,0,2.16-.93l8.3-8.09a1.73,1.73,0,0,0,.4-2.07l0-.11a1.34,1.34,0,0,0-.85-.62,1.14,1.14,0,0,0-1,.27l-7.8,6.57a.58.58,0,0,1-.39.15h-8.18a2.45,2.45,0,0,1,0-4.83h4.43a1.13,1.13,0,0,0,1-1.2,1.15,1.15,0,0,0-1-1.21h2.16a3.15,3.15,0,0,1,.23,1.12v.09a2.63,2.63,0,0,1-2.38,2.81h-4.43a.82.82,0,0,0,0,1.61h8l6.68-5.63H195l.08.16A3.53,3.53,0,0,1,194.35,382.56Z" transform="translate(-156 -345)"/><path class="cls-3" d="M166.82,391.92v2.41a.76.76,0,0,1-.68.81h-7.48v-1.61h6.79V381.46h-6.79v-1.61h7.48a.58.58,0,0,1,.41.17l-.83.82a.85.85,0,0,0-.25.62v9.65a.76.76,0,0,0,.69.81Z" transform="translate(-156 -345)"/><path class="cls-3" d="M166.82,380.65v11.27h-.66a.76.76,0,0,1-.69-.81v-9.65a.85.85,0,0,1,.25-.62l.83-.82A.87.87,0,0,1,166.82,380.65Z" transform="translate(-156 -345)"/><path class="cls-3" d="M162.07,387.09a2.45,2.45,0,1,0,2,2.41A2.25,2.25,0,0,0,162.07,387.09Zm0,3.22a.82.82,0,1,1,.68-.81A.75.75,0,0,1,162.07,390.31Z" transform="translate(-156 -345)"/><path d="M180.09,378.24h0Z" transform="translate(-156 -345)"/><path class="cls-3" d="M195,378.23h-4.68l.93-.79a2.36,2.36,0,0,1,2-.55,2.64,2.64,0,0,1,1.73,1.27Z" transform="translate(-156 -345)"/><path class="cls-3" d="M182.27,378.24H168.36l.69-.67a3.11,3.11,0,0,1,2.15-.94h8.92A2.38,2.38,0,0,1,182.27,378.24Z" transform="translate(-156 -345)"/><path class="cls-3" d="M171.2,376.63a3.11,3.11,0,0,0-2.15.94l-.69.67h-4.93c-2.63,0-4.77-2.53-4.77-5.63a.76.76,0,0,1,.68-.81h2v.81a.75.75,0,0,0,.68.8h-2a3.62,3.62,0,0,0,3.34,3.22Z" transform="translate(-156 -345)"/><path class="cls-3" d="M199.53,372.61c0,3-2,5.48-4.52,5.62l0-.06a2.64,2.64,0,0,0-1.73-1.27,2.36,2.36,0,0,0-2,.55l-.93.79h-8.06a2.38,2.38,0,0,0-2.15-1.61h14.64a3.6,3.6,0,0,0,3.34-3.22h-2a.75.75,0,0,0,.68-.8v-.81h2A.75.75,0,0,1,199.53,372.61Z" transform="translate(-156 -345)"/><path class="cls-3" d="M196.81,371.8v.81a.75.75,0,0,1-.68.8H162.07a.75.75,0,0,1-.68-.8v-.81Z" transform="translate(-156 -345)"/><path class="cls-3" d="M196.81,371.8h-1.36c0-10.64-7.34-19.3-16.35-19.3s-16.35,8.66-16.35,19.3h-1.36c0-11.26,7.58-20.47,17-20.9v.79h1.36v-.79C189.23,351.33,196.81,360.54,196.81,371.8Z" transform="translate(-156 -345)"/><path class="cls-3" d="M179.1,352.5c-9,0-16.35,8.66-16.35,19.3h32.7C195.45,361.16,188.11,352.5,179.1,352.5ZM167.72,363l-1.14-.89a20,20,0,0,1,1.31-2l1,1.07A16.55,16.55,0,0,0,167.72,363Zm2.06-2.89-.94-1.17a13.81,13.81,0,0,1,10.26-4.81v1.61A12.56,12.56,0,0,0,169.78,360.08Z" transform="translate(-156 -345)"/><path class="cls-1" d="M168.91,361.13a16.55,16.55,0,0,0-1.19,1.84l-1.14-.89a20,20,0,0,1,1.31-2Z" transform="translate(-156 -345)"/><path class="cls-1" d="M179.1,355.71a12.56,12.56,0,0,0-9.32,4.37l-.94-1.17a13.81,13.81,0,0,1,10.26-4.81Z" transform="translate(-156 -345)"/><polygon class="cls-3" points="25.14 1.86 25.14 3.47 23.78 3.47 23.78 2.67 22.42 2.67 22.42 3.47 21.05 3.47 21.05 1.86 25.14 1.86"/><path class="cls-3" d="M179.78,348.47v2.43h-1.36v-2.43Z" transform="translate(-156 -345)"/><rect class="cls-3" x="22.42" y="2.67" width="1.36" height="0.81"/><path class="cls-3" d="M179.78,350.9v.79h-1.36v-.79h1.36Z" transform="translate(-156 -345)"/><text class="cls-4" transform="translate(59 46.92)"><tspan class="cls-5">Y</tspan><tspan x="18.35" y="0">um</tspan></text><text class="cls-6" transform="translate(120.33 46.92) scale(0.95 1)">Food</text></svg>