<svg xmlns="http://www.w3.org/2000/svg" width="1087" height="499" viewBox="0 0 1087 499" fill="none">
<g opacity="0.4">
<path d="M14.7532 300.278L36.0481 307.225C37.509 307.702 37.909 309.58 36.7691 310.61L20.6644 325.171C19.539 326.188 17.7348 325.631 17.3789 324.156L12.1887 302.649C11.8215 301.127 13.2653 299.793 14.7532 300.278Z" stroke="#12278C" stroke-width="4"/>
<path d="M1067.67 317.621L1081.36 322.09C1082.82 322.566 1083.22 324.444 1082.08 325.475L1071.73 334.841C1070.6 335.858 1068.8 335.301 1068.44 333.826L1065.1 319.991C1064.73 318.47 1066.18 317.135 1067.67 317.621Z" stroke="#12278C" stroke-width="4"/>
<path d="M237.651 127.197L227.298 161.293L205.105 143.327L237.651 127.197Z" fill="#8B95C6"/>
<path fill-rule="evenodd" clip-rule="evenodd" d="M226.735 157.083L203.916 138.611L237.379 122.027L226.735 157.083ZM225.475 152.978L233.473 126.639L208.33 139.099L225.475 152.978Z" fill="#12278C"/>
<path d="M1030.99 120.534L1050.45 126.442L1040.2 139.108L1030.99 120.534Z" fill="#8B95C6"/>
<path fill-rule="evenodd" clip-rule="evenodd" d="M1048.05 126.765L1037.51 139.787L1028.04 120.69L1048.05 126.765ZM1045.7 127.483L1030.67 122.919L1037.78 137.268L1045.7 127.483Z" fill="#12278C"/>
<circle opacity="0.5" cx="48.3015" cy="151.969" r="25.3465" stroke="#F2C94C" stroke-width="4"/>
<circle opacity="0.5" cx="519.853" cy="143.521" r="16.898" stroke="#F2C94C" stroke-width="4"/>
<path fill-rule="evenodd" clip-rule="evenodd" d="M357.023 247.022L358.043 256.305L355.06 256.633L354.32 249.887L347.19 249.521L346.731 242.432L339.612 242.036L339.316 235.113L332.432 234.772L332.02 227.83L326.108 227.694L326.177 224.695L334.851 224.894L335.267 231.908L342.197 232.252L342.493 239.192L349.553 239.585L350.011 246.662L357.023 247.022Z" fill="#12278C"/>
<path fill-rule="evenodd" clip-rule="evenodd" d="M947.023 487.022L948.043 496.305L945.06 496.633L944.32 489.887L937.19 489.521L936.731 482.432L929.612 482.036L929.316 475.113L922.432 474.772L922.02 467.83L916.108 467.694L916.177 464.695L924.851 464.894L925.267 471.908L932.197 472.252L932.493 479.192L939.553 479.585L940.011 486.662L947.023 487.022Z" fill="#F8E3A5"/>
<mask id="mask0" mask-type="alpha" maskUnits="userSpaceOnUse" x="745" y="102" width="88" height="88">
<path d="M832.346 145.803C832.346 169.752 812.931 189.166 788.982 189.166C765.034 189.166 745.619 169.752 745.619 145.803C745.619 121.854 765.034 102.439 788.982 102.439C812.931 102.439 832.346 121.854 832.346 145.803Z" fill="#C4C4C4"/>
</mask>
<g mask="url(#mask0)">
<path fill-rule="evenodd" clip-rule="evenodd" d="M826.463 123.848C826.82 124.467 827.161 125.091 827.484 125.72L752.466 169.032C752.083 168.437 751.713 167.83 751.355 167.211C750.564 165.841 749.857 164.445 749.23 163.03L823.905 119.917C824.817 121.167 825.672 122.477 826.463 123.848ZM822.086 117.595L848.362 102.424L849.822 104.954L823.905 119.917C823.322 119.118 822.715 118.344 822.086 117.595ZM748.129 160.294L822.086 117.595C820.556 115.774 818.896 114.103 817.128 112.588L844.954 96.5223L843.494 93.9929L814.671 110.634C812.57 109.085 810.344 107.738 808.025 106.602L840.086 88.0908L838.626 85.5614L804.707 105.144C801.705 103.972 798.58 103.136 795.394 102.652L835.218 79.6593L833.758 77.1299L790.362 102.185C782.525 101.914 774.519 103.766 767.228 107.976C759.936 112.185 754.33 118.193 750.645 125.115L706.303 150.716L707.763 153.246L748.534 129.707C747.36 132.708 746.522 135.832 746.036 139.018L711.171 159.148L712.631 161.677L745.639 142.62C745.463 145.197 745.517 147.798 745.808 150.392L716.038 167.579L717.499 170.109L746.272 153.496C746.7 155.785 747.317 158.058 748.129 160.294ZM748.129 160.294L720.906 176.011L722.367 178.54L749.23 163.03C748.83 162.126 748.463 161.213 748.129 160.294ZM746.272 153.496L817.128 112.588C816.33 111.905 815.51 111.253 814.671 110.634L745.808 150.392C745.925 151.428 746.079 152.464 746.272 153.496ZM745.639 142.62L808.025 106.602C806.938 106.069 805.831 105.583 804.707 105.144L746.036 139.018C745.854 140.211 745.721 141.413 745.639 142.62ZM748.534 129.707C749.147 128.14 749.851 126.606 750.645 125.115L790.362 102.185C792.05 102.243 793.73 102.399 795.394 102.652L748.534 129.707ZM754.134 171.441L727.235 186.972L725.774 184.442L752.466 169.032C752.999 169.859 753.555 170.662 754.134 171.441ZM828.737 128.369L754.134 171.441C755.535 173.327 757.069 175.07 758.713 176.667L730.642 192.874L732.103 195.403L760.99 178.725C762.924 180.351 764.984 181.793 767.143 183.042L735.51 201.305L736.971 203.835L770.197 184.652C772.899 185.941 775.725 186.947 778.624 187.655L740.378 209.737L741.839 212.266L783.016 188.492C792.227 189.762 801.915 188.092 810.591 183.083C819.267 178.074 825.557 170.519 829.063 161.907L869.294 138.68L867.833 136.15L830.534 157.685C831.37 154.82 831.912 151.87 832.146 148.885L864.426 130.248L862.966 127.719L832.28 145.435C832.277 142.942 832.058 140.437 831.617 137.949L859.558 121.817L858.098 119.287L830.973 134.948C830.413 132.725 829.669 130.525 828.737 128.369ZM828.737 128.369L854.69 113.385L853.23 110.856L827.484 125.72C827.934 126.595 828.352 127.478 828.737 128.369ZM830.973 134.948C831.224 135.944 831.439 136.945 831.617 137.949L760.99 178.725C760.21 178.069 759.451 177.383 758.713 176.667L830.973 134.948ZM832.28 145.435C832.281 146.589 832.236 147.739 832.146 148.885L770.197 184.652C769.159 184.157 768.141 183.62 767.143 183.042L832.28 145.435ZM830.534 157.685L778.624 187.655C780.072 188.009 781.538 188.288 783.016 188.492L829.063 161.907C829.625 160.525 830.116 159.116 830.534 157.685Z" fill="#CDCFD8"/>
</g>
<g opacity="0.2">
<mask id="mask1" mask-type="alpha" maskUnits="userSpaceOnUse" x="307" y="0" width="75" height="74">
<path d="M362.754 18.3594C372.893 28.499 372.893 44.9385 362.754 55.0781C352.614 65.2177 336.174 65.2177 326.035 55.0781C315.895 44.9385 315.895 28.499 326.035 18.3594C336.174 8.2198 352.614 8.2198 362.754 18.3594Z" fill="#C4C4C4"/>
</mask>
<g mask="url(#mask1)">
<path fill-rule="evenodd" clip-rule="evenodd" d="M362.754 18.3594C363.056 18.662 363.35 18.9703 363.635 19.2839L326.959 55.959C326.646 55.6744 326.338 55.3808 326.035 55.0781C325.365 54.4082 324.739 53.7108 324.158 52.9896L360.665 16.4825C361.386 17.0639 362.084 17.6895 362.754 18.3594ZM359.253 15.4214L372.099 2.57544L373.336 3.81205L360.665 16.4825C360.204 16.1107 359.733 15.757 359.253 15.4214ZM323.097 51.5775L359.253 15.4214C358.086 14.6052 356.867 13.8961 355.61 13.294L369.214 -0.309971L367.977 -1.54657L353.886 12.5447C352.431 11.9743 350.935 11.5402 349.417 11.2424L365.092 -4.43199L363.855 -5.66859L347.273 10.9138C345.355 10.7011 343.418 10.7016 341.5 10.9155L360.97 -8.554L359.733 -9.79061L338.517 11.4249C333.943 12.4832 329.6 14.7947 326.035 18.3594C322.47 21.9241 320.159 26.2674 319.1 30.8419L297.422 52.5201L298.659 53.7567L318.591 33.8245C318.377 35.7423 318.377 37.6793 318.589 39.5971L301.544 56.6422L302.781 57.8788L318.918 41.7416C319.216 43.2592 319.65 44.7552 320.22 46.2102L305.666 60.7642L306.903 62.0008L320.97 47.9341C321.572 49.1915 322.281 50.4106 323.097 51.5775ZM323.097 51.5775L309.788 64.8862L311.025 66.1228L324.158 52.9896C323.786 52.5284 323.433 52.0573 323.097 51.5775ZM320.97 47.9341L355.61 13.294C355.042 13.0225 354.467 12.7727 353.886 12.5447L320.22 46.2102C320.448 46.7918 320.698 47.3668 320.97 47.9341ZM318.918 41.7416L349.417 11.2424C348.706 11.103 347.991 10.9934 347.273 10.9138L318.589 39.5971C318.669 40.3153 318.779 41.0308 318.918 41.7416ZM318.591 33.8245C318.703 32.8232 318.873 31.8272 319.1 30.8419L338.517 11.4249C339.503 11.197 340.499 11.0272 341.5 10.9155L318.591 33.8245ZM328.298 57.0941L315.147 70.2448L313.91 69.0082L326.959 55.959C327.396 56.3549 327.842 56.7332 328.298 57.0941ZM364.77 20.622L328.298 57.0941C329.4 57.9673 330.557 58.7382 331.756 59.4068L318.032 73.1302L319.269 74.3668L333.392 60.2441C334.762 60.8849 336.177 61.3994 337.619 61.7877L322.154 77.2522L323.391 78.4888L339.635 62.2452C341.397 62.5723 343.187 62.716 344.974 62.6763L326.276 81.3743L327.513 82.6109L347.644 62.4798C353.168 61.7869 358.512 59.3196 362.754 55.0781C366.995 50.8365 369.462 45.4925 370.155 39.9684L389.824 20.3001L388.587 19.0635L370.352 37.2987C370.392 35.5119 370.248 33.7218 369.921 31.959L385.702 16.1781L384.465 14.9415L369.463 29.9433C369.075 28.5015 368.56 27.0866 367.92 25.7161L381.58 12.0561L380.343 10.8195L367.082 24.0802C366.414 22.8815 365.643 21.7245 364.77 20.622ZM364.77 20.622L377.458 7.93406L376.221 6.69746L363.635 19.2839C364.03 19.7201 364.409 20.1664 364.77 20.622ZM367.082 24.0802C367.382 24.6175 367.661 25.1632 367.92 25.7161L333.392 60.2441C332.839 59.9855 332.293 59.7064 331.756 59.4068L367.082 24.0802ZM369.463 29.9433C369.643 30.61 369.795 31.2825 369.921 31.959L339.635 62.2452C338.958 62.1197 338.286 61.9672 337.619 61.7877L369.463 29.9433ZM370.352 37.2987L344.974 62.6763C345.866 62.6565 346.757 62.591 347.644 62.4798L370.155 39.9684C370.267 39.0819 370.332 38.1907 370.352 37.2987Z" fill="#12278C"/>
</g>
</g>
<path fill-rule="evenodd" clip-rule="evenodd" d="M581.055 453.773C581.528 453.3 581.528 452.532 581.055 452.059C580.582 451.585 579.814 451.585 579.341 452.059C578.867 452.532 578.867 453.3 579.341 453.773C579.814 454.247 580.582 454.247 581.055 453.773ZM584.909 449.919C585.382 449.446 585.382 448.678 584.909 448.205C584.435 447.732 583.668 447.732 583.194 448.205C582.721 448.678 582.721 449.446 583.194 449.919C583.668 450.393 584.435 450.393 584.909 449.919ZM588.793 444.321C589.266 444.795 589.266 445.562 588.793 446.036C588.319 446.509 587.552 446.509 587.078 446.036C586.605 445.562 586.605 444.795 587.078 444.321C587.552 443.848 588.319 443.848 588.793 444.321ZM592.676 442.152C593.15 441.679 593.15 440.911 592.676 440.438C592.203 439.964 591.435 439.964 590.962 440.438C590.488 440.911 590.488 441.679 590.962 442.152C591.435 442.625 592.203 442.625 592.676 442.152ZM584.8 455.803C585.273 456.277 585.273 457.044 584.8 457.518C584.326 457.991 583.559 457.991 583.085 457.518C582.612 457.044 582.612 456.277 583.085 455.803C583.559 455.33 584.326 455.33 584.8 455.803ZM588.683 453.634C589.157 453.161 589.157 452.393 588.683 451.92C588.21 451.446 587.442 451.446 586.969 451.92C586.496 452.393 586.496 453.161 586.969 453.634C587.442 454.108 588.21 454.108 588.683 453.634ZM592.567 448.036C593.041 448.51 593.041 449.277 592.567 449.751C592.094 450.224 591.326 450.224 590.853 449.751C590.379 449.277 590.379 448.51 590.853 448.036C591.326 447.563 592.094 447.563 592.567 448.036ZM596.451 445.867C596.924 445.393 596.924 444.626 596.451 444.152C595.977 443.679 595.21 443.679 594.736 444.152C594.263 444.626 594.263 445.393 594.736 445.867C595.21 446.34 595.977 446.34 596.451 445.867ZM588.683 459.687C589.157 460.161 589.157 460.928 588.683 461.402C588.21 461.875 587.442 461.875 586.969 461.402C586.496 460.928 586.496 460.161 586.969 459.687C587.442 459.214 588.21 459.214 588.683 459.687ZM592.567 457.518C593.041 457.044 593.041 456.277 592.567 455.803C592.094 455.33 591.326 455.33 590.853 455.803C590.379 456.277 590.379 457.044 590.853 457.518C591.326 457.991 592.094 457.991 592.567 457.518ZM596.451 451.92C596.924 452.393 596.924 453.161 596.451 453.634C595.977 454.108 595.21 454.108 594.736 453.634C594.263 453.161 594.263 452.393 594.736 451.92C595.21 451.446 595.977 451.446 596.451 451.92ZM600.334 449.751C600.808 449.277 600.808 448.51 600.334 448.036C599.861 447.563 599.093 447.563 598.62 448.036C598.147 448.51 598.147 449.277 598.62 449.751C599.093 450.224 599.861 450.224 600.334 449.751ZM592.567 463.571C593.041 464.044 593.041 464.812 592.567 465.285C592.094 465.759 591.326 465.759 590.853 465.285C590.379 464.812 590.379 464.044 590.853 463.571C591.326 463.097 592.094 463.097 592.567 463.571ZM596.451 461.402C596.924 460.928 596.924 460.161 596.451 459.687C595.977 459.214 595.21 459.214 594.736 459.687C594.263 460.161 594.263 460.928 594.736 461.402C595.21 461.875 595.977 461.875 596.451 461.402ZM600.334 455.803C600.808 456.277 600.808 457.044 600.334 457.518C599.861 457.991 599.093 457.991 598.62 457.518C598.147 457.044 598.147 456.277 598.62 455.803C599.093 455.33 599.861 455.33 600.334 455.803ZM604.218 453.634C604.692 453.161 604.692 452.393 604.218 451.92C603.745 451.446 602.977 451.446 602.504 451.92C602.03 452.393 602.03 453.161 602.504 453.634C602.977 454.108 603.745 454.108 604.218 453.634Z" fill="#8B95C6"/>
<path fill-rule="evenodd" clip-rule="evenodd" d="M965.124 224.312C966.401 224.312 967.436 223.277 967.436 222C967.436 220.723 966.401 219.688 965.124 219.688C963.847 219.688 962.812 220.723 962.812 222C962.812 223.277 963.847 224.312 965.124 224.312ZM975.52 224.312C976.797 224.312 977.832 223.277 977.832 222C977.832 220.723 976.797 219.688 975.52 219.688C974.242 219.688 973.207 220.723 973.207 222C973.207 223.277 974.242 224.312 975.52 224.312ZM988.308 222C988.308 223.277 987.273 224.312 985.996 224.312C984.719 224.312 983.683 223.277 983.683 222C983.683 220.723 984.719 219.688 985.996 219.688C987.273 219.688 988.308 220.723 988.308 222ZM996.472 224.312C997.749 224.312 998.784 223.277 998.784 222C998.784 220.723 997.749 219.688 996.472 219.688C995.195 219.688 994.16 220.723 994.16 222C994.16 223.277 995.195 224.312 996.472 224.312ZM967.436 232.101C967.436 233.378 966.401 234.413 965.124 234.413C963.847 234.413 962.812 233.378 962.812 232.101C962.812 230.824 963.847 229.789 965.124 229.789C966.401 229.789 967.436 230.824 967.436 232.101ZM975.6 234.413C976.877 234.413 977.912 233.378 977.912 232.101C977.912 230.824 976.877 229.789 975.6 229.789C974.323 229.789 973.288 230.824 973.288 232.101C973.288 233.378 974.323 234.413 975.6 234.413ZM988.389 232.101C988.389 233.378 987.353 234.413 986.076 234.413C984.799 234.413 983.764 233.378 983.764 232.101C983.764 230.824 984.799 229.789 986.076 229.789C987.353 229.789 988.389 230.824 988.389 232.101ZM996.552 234.413C997.83 234.413 998.865 233.378 998.865 232.101C998.865 230.824 997.83 229.789 996.552 229.789C995.275 229.789 994.24 230.824 994.24 232.101C994.24 233.378 995.275 234.413 996.552 234.413ZM967.436 242.577C967.436 243.854 966.401 244.89 965.124 244.89C963.847 244.89 962.812 243.854 962.812 242.577C962.812 241.3 963.847 240.265 965.124 240.265C966.401 240.265 967.436 241.3 967.436 242.577ZM975.6 244.89C976.877 244.89 977.912 243.854 977.912 242.577C977.912 241.3 976.877 240.265 975.6 240.265C974.323 240.265 973.288 241.3 973.288 242.577C973.288 243.854 974.323 244.89 975.6 244.89ZM988.389 242.577C988.389 243.854 987.353 244.89 986.076 244.89C984.799 244.89 983.764 243.854 983.764 242.577C983.764 241.3 984.799 240.265 986.076 240.265C987.353 240.265 988.389 241.3 988.389 242.577ZM996.552 244.89C997.83 244.89 998.865 243.854 998.865 242.577C998.865 241.3 997.83 240.265 996.552 240.265C995.275 240.265 994.24 241.3 994.24 242.577C994.24 243.854 995.275 244.89 996.552 244.89ZM967.436 253.054C967.436 254.331 966.401 255.366 965.124 255.366C963.847 255.366 962.812 254.331 962.812 253.054C962.812 251.776 963.847 250.741 965.124 250.741C966.401 250.741 967.436 251.776 967.436 253.054ZM975.6 255.366C976.877 255.366 977.912 254.331 977.912 253.054C977.912 251.776 976.877 250.741 975.6 250.741C974.323 250.741 973.288 251.776 973.288 253.054C973.288 254.331 974.323 255.366 975.6 255.366ZM988.389 253.054C988.389 254.331 987.353 255.366 986.076 255.366C984.799 255.366 983.764 254.331 983.764 253.054C983.764 251.776 984.799 250.741 986.076 250.741C987.353 250.741 988.389 251.776 988.389 253.054ZM996.552 255.366C997.83 255.366 998.865 254.331 998.865 253.054C998.865 251.776 997.83 250.741 996.552 250.741C995.275 250.741 994.24 251.776 994.24 253.054C994.24 254.331 995.275 255.366 996.552 255.366Z" fill="#8B95C6"/>
</g>
</svg>